<?xml version="1.0" encoding="UTF-8"?>
<svg width="75px" height="34px" viewBox="0 0 75 34" version="1.1" xmlns="http://www.w3.org/2000/svg" xmlns:xlink="http://www.w3.org/1999/xlink">
    <title>Element / Logo / Logo White</title>
    <defs>
        <linearGradient x1="50.0001983%" y1="100%" x2="50.0001983%" y2="26.0018807%" id="linearGradient-1">
            <stop stop-color="#FFFFFF" offset="0%"></stop>
            <stop stop-color="#FFFFFF" stop-opacity="0.72" offset="15%"></stop>
            <stop stop-color="#FFFFFF" stop-opacity="0.47" offset="31%"></stop>
            <stop stop-color="#FFFFFF" stop-opacity="0.27" offset="45%"></stop>
            <stop stop-color="#FFFFFF" stop-opacity="0.12" offset="57%"></stop>
            <stop stop-color="#FFFFFF" stop-opacity="0.03" offset="67%"></stop>
            <stop stop-color="#FFFFFF" stop-opacity="0" offset="100%"></stop>
        </linearGradient>
        <linearGradient x1="50.0009285%" y1="100.014287%" x2="50.0009285%" y2="0.0103186068%" id="linearGradient-2">
            <stop stop-color="#FFFFFF" offset="0%"></stop>
            <stop stop-color="#FFFFFF" stop-opacity="0.72" offset="15%"></stop>
            <stop stop-color="#FFFFFF" stop-opacity="0.47" offset="31%"></stop>
            <stop stop-color="#FFFFFF" stop-opacity="0.27" offset="45%"></stop>
            <stop stop-color="#FFFFFF" stop-opacity="0.12" offset="57%"></stop>
            <stop stop-color="#FFFFFF" stop-opacity="0.03" offset="67%"></stop>
            <stop stop-color="#FFFFFF" stop-opacity="0" offset="74%"></stop>
        </linearGradient>
        <linearGradient x1="49.9936476%" y1="100.017654%" x2="49.9936476%" y2="0%" id="linearGradient-3">
            <stop stop-color="#FFFFFF" offset="0%"></stop>
            <stop stop-color="#FFFFFF" stop-opacity="0.72" offset="15%"></stop>
            <stop stop-color="#FFFFFF" stop-opacity="0.47" offset="31%"></stop>
            <stop stop-color="#FFFFFF" stop-opacity="0.27" offset="45%"></stop>
            <stop stop-color="#FFFFFF" stop-opacity="0.12" offset="57%"></stop>
            <stop stop-color="#FFFFFF" stop-opacity="0.03" offset="67%"></stop>
            <stop stop-color="#FFFFFF" stop-opacity="0" offset="74%"></stop>
        </linearGradient>
        <linearGradient x1="49.9945745%" y1="99.9876902%" x2="49.9945745%" y2="25.9967994%" id="linearGradient-4">
            <stop stop-color="#FFFFFF" offset="0%"></stop>
            <stop stop-color="#FFFFFF" stop-opacity="0.72" offset="15%"></stop>
            <stop stop-color="#FFFFFF" stop-opacity="0.47" offset="31%"></stop>
            <stop stop-color="#FFFFFF" stop-opacity="0.27" offset="45%"></stop>
            <stop stop-color="#FFFFFF" stop-opacity="0.12" offset="57%"></stop>
            <stop stop-color="#FFFFFF" stop-opacity="0.03" offset="67%"></stop>
            <stop stop-color="#FFFFFF" stop-opacity="0" offset="100%"></stop>
        </linearGradient>
        <linearGradient x1="49.996937%" y1="100%" x2="49.996937%" y2="26.0020437%" id="linearGradient-5">
            <stop stop-color="#FFFFFF" offset="0%"></stop>
            <stop stop-color="#FFFFFF" stop-opacity="0.72" offset="15%"></stop>
            <stop stop-color="#FFFFFF" stop-opacity="0.47" offset="31%"></stop>
            <stop stop-color="#FFFFFF" stop-opacity="0.27" offset="45%"></stop>
            <stop stop-color="#FFFFFF" stop-opacity="0.12" offset="57%"></stop>
            <stop stop-color="#FFFFFF" stop-opacity="0.03" offset="67%"></stop>
            <stop stop-color="#FFFFFF" stop-opacity="0" offset="100%"></stop>
        </linearGradient>
        <linearGradient x1="49.9931945%" y1="100%" x2="49.9931945%" y2="-2.1461685e-14%" id="linearGradient-6">
            <stop stop-color="#FFFFFF" offset="0%"></stop>
            <stop stop-color="#FFFFFF" stop-opacity="0.72" offset="15%"></stop>
            <stop stop-color="#FFFFFF" stop-opacity="0.47" offset="31%"></stop>
            <stop stop-color="#FFFFFF" stop-opacity="0.27" offset="45%"></stop>
            <stop stop-color="#FFFFFF" stop-opacity="0.12" offset="57%"></stop>
            <stop stop-color="#FFFFFF" stop-opacity="0.03" offset="67%"></stop>
            <stop stop-color="#FFFFFF" stop-opacity="0" offset="74%"></stop>
        </linearGradient>
    </defs>
    <g id="Element-/-Logo-/-Logo-White" stroke="none" stroke-width="1" fill="none" fill-rule="evenodd">
        <g id="Asset-1" transform="translate(0.000000, 4.000000)" fill-rule="nonzero">
            <path d="M6.00793553,14.3415455 C6.36595719,14.2566537 6.72674705,14.1837576 7.08661417,14.109016 C7.4464813,14.0342743 7.80727116,13.954919 8.16898376,13.888482 L9.25504429,13.6873255 L9.79853593,13.5885927 L10.3429503,13.4963191 C13.2468012,13.0100371 16.1709523,12.65017 19.1006398,12.3715036 C21.3625738,12.1598895 23.6278912,11.9953349 25.896592,11.8778398 L26.351501,9.88842048 C26.1318898,10.421762 22.937377,10.6192276 19.8259104,10.6847418 L14.7868479,10.6847418 L16.2752215,4.69341556 L24.3537771,4.69341556 C24.3537771,4.69341556 28.2191191,4.57807353 28.4894808,6.47152826 C28.4894808,6.47152826 30.8083169,0.0557433151 28.4894808,0.0169883938 C26.1706447,-0.0217665274 6.41855315,0.01791113 6.41855315,0.01791113 C6.41855315,0.01791113 6.72766978,0.442369791 6.61140502,1.95012078 C6.54681348,2.79165621 5.01322589,9.31632402 3.67064469,14.9182556 L3.86349656,14.8665824 C4.57308071,14.671885 5.29096949,14.5122517 6.00793553,14.3415455 Z" id="Path" fill="#F8FAFD"></path>
            <path d="M36.7332062,11.6323919 C38.1219242,11.6323919 39.5097195,11.6693014 40.8984375,11.6979062 L42.6368725,4.6943383 L47.6150344,4.6943383 C49.4088337,4.6943383 48.9197835,5.97601891 48.9197835,5.97601891 C48.9197835,5.97601891 48.2443406,8.84849676 47.8494094,10.9892448 C47.7902214,11.3529007 47.6467559,11.6976604 47.4304872,11.99595 C49.7419414,12.1426651 52.0515502,12.3327487 54.3556225,12.5920376 C55.2697466,12.6947689 56.1832554,12.80642 57.0961491,12.9269909 C58.8936393,8.20627235 59.8994218,3.09892737 58.2698696,1.35680139 C58.2698696,1.35680139 57.1229085,0.0308294371 54.8557456,0.01791113 C52.5322958,0.00037914186 32.781127,0.01791113 32.781127,0.01791113 C32.781127,0.01791113 33.0902436,0.442369791 32.9739788,1.95012078 C32.9213829,2.63294558 31.9026821,7.05377481 30.8027805,11.6886788 C32.7792815,11.6388511 34.7560901,11.6200888 36.7332062,11.6323919 Z" id="Path" fill="#F8FAFD"></path>
            <path d="M75,0.01791113 L62.865096,0.01791113 C62.865096,0.01791113 63.1742126,0.442369791 63.0579478,1.95012078 C62.9988927,2.71783731 61.7172121,8.21642245 60.4742864,13.4280366 C61.3508858,13.5719835 62.2256398,13.7282335 63.0985482,13.8967866 C63.8219734,14.0305834 64.5417077,14.1966759 65.2614419,14.3526183 C65.6213091,14.4282827 65.9793307,14.521479 66.3373524,14.6100617 C66.695374,14.6986444 67.0515502,14.7899953 67.4077264,14.8822689 L68.468873,15.1904628 C68.6460384,15.242136 68.8232037,15.2910411 68.9994464,15.3454825 L69.5235605,15.5198796 L70.046752,15.6979677 L70.0559793,15.6979677 L72.7217643,4.6943383 C73.3261565,2.26108288 75,0.01791113 75,0.01791113 Z" id="Path" fill="#F8FAFD"></path>
            <path d="M10.4573696,14.3950642 C9.72840797,14.4495056 9.0031373,14.5362428 8.27509843,14.6026798 C7.90600394,14.6349756 7.54798228,14.6829579 7.18442421,14.7217128 C6.82086614,14.7604677 6.46099902,14.7955317 6.09190453,14.8425912 C5.36663386,14.9348649 4.63951772,15.0271385 3.91609252,15.1378668 L3.60420768,15.1830809 C2.56705217,19.5051774 1.6609252,23.210886 1.6609252,23.210886 C1.6609252,23.210886 1.15895669,25.2206055 0,26.7283565 L21.7636565,26.7283565 C21.7636565,26.7283565 24.4303642,27.230325 25.281127,20.7370302 C24.6961741,21.5702764 23.7476971,22.0731579 22.7297613,22.0897615 C20.9904035,22.1285164 11.9457431,22.1285164 11.9457431,22.1285164 L13.6583415,15.2467497 L19.5131029,15.2467497 C24.6896531,15.4239151 24.9369464,16.0975125 24.9369464,16.0975125 L25.5108883,13.5849018 C23.4088952,13.6414963 21.3075172,13.7180834 19.2067544,13.8146631 C16.2853716,13.9521508 13.3695251,14.136698 10.4573696,14.3950642 Z" id="Path" fill="#0A60FF"></path>
            <path d="M52.0441683,13.9115504 L49.8563607,13.8008221 C48.3975148,13.7454579 46.9395915,13.671639 45.4798228,13.636575 C42.5615157,13.5436862 39.6416708,13.4904751 36.7202879,13.4769416 C34.603531,13.462793 32.4870817,13.4680219 30.37094,13.4926282 C29.177842,18.4929357 28.023499,23.2099633 28.023499,23.2099633 C28.023499,23.2099633 27.5215305,25.2196828 26.3625738,26.7274338 L38.203125,26.7274338 C38.203125,26.7274338 37.486159,25.4457532 38.3101624,22.1275937 L39.4949557,17.3635066 L50.443221,17.2417054 C50.443221,17.2417054 54.3953002,17.6107999 56.4880659,14.1966759 C55.7375738,14.1413117 54.9870817,14.0899461 54.2365896,14.0425789 L52.0441683,13.9115504 Z" id="Path" fill="#0A60FF"></path>
            <path d="M69.4525098,15.7893186 L68.9164001,15.6730538 C68.7373893,15.6379899 68.556533,15.6075396 68.3765994,15.5752438 L67.2988435,15.3823919 L66.2146284,15.2199904 C65.8538386,15.1646262 65.4939715,15.1055711 65.1313361,15.0640479 C64.4060655,14.9717743 63.6854085,14.8647369 62.9582923,14.7927635 C62.0447835,14.6888019 61.1303519,14.59376 60.2149975,14.507638 C59.1123278,19.1120917 58.1102362,23.2099633 58.1102362,23.2099633 C58.1102362,23.2099633 57.6082677,25.2196828 56.449311,26.7274338 L68.3526083,26.7274338 C67.7334523,26.0722911 68.1837475,23.4388019 68.1837475,23.4388019 L70.007997,15.9046606 L69.9895423,15.9046606 L69.4525098,15.7893186 Z" id="Path" fill="#0A60FF"></path>
            <g id="Top-Gradients" opacity="0.47" style="mix-blend-mode: overlay;" transform="translate(3.670645, 0.000000)">
                <path d="M2.33729085,14.3415455 C2.6953125,14.2566537 3.05610236,14.1837576 3.41596949,14.109016 C3.77583661,14.0342743 4.13662648,13.954919 4.49833907,13.888482 L5.58439961,13.6873255 L6.12789124,13.5885927 L6.67230561,13.4963191 C9.5761565,13.0100371 12.5003076,12.65017 15.4299951,12.3715036 C17.6919291,12.1598895 19.9572466,11.9953349 22.2259473,11.8778398 L22.6808563,9.88842048 C22.4612451,10.421762 19.2667323,10.6192276 16.1552657,10.6847418 L11.1162032,10.6847418 L12.6045768,4.69341556 L20.6831324,4.69341556 C20.6831324,4.69341556 24.5484744,4.57807353 24.8188361,6.47152826 C24.8188361,6.47152826 27.1376722,0.0557433151 24.8188361,0.0169883938 C22.5,-0.0217665274 2.74790846,0.01791113 2.74790846,0.01791113 C2.74790846,0.01791113 3.0570251,0.442369791 2.94076033,1.95012078 C2.8761688,2.79165621 1.3425812,9.31632402 0,14.9182556 L0.19285187,14.8665824 C0.902436024,14.671885 1.6203248,14.5122517 2.33729085,14.3415455 Z" id="Path" fill="url(#linearGradient-1)"></path>
                <path d="M33.0625615,11.6323919 C34.4512795,11.6323919 35.8390748,11.6693014 37.2277928,11.6979062 L38.9662279,4.6943383 L43.9443898,4.6943383 C45.738189,4.6943383 45.2491388,5.97601891 45.2491388,5.97601891 C45.2491388,5.97601891 44.5736959,8.84849676 44.1787648,10.9892448 C44.1195767,11.3529007 43.9761112,11.6976604 43.7598425,11.99595 C46.0712968,12.1426651 48.3809055,12.3327487 50.6849779,12.5920376 C51.5991019,12.6947689 52.5126107,12.80642 53.4255044,12.9269909 C55.2229946,8.20627235 56.2287771,3.09892737 54.5992249,1.35680139 C54.5992249,1.35680139 53.4522638,0.0308294371 51.1851009,0.01791113 C48.8616511,0.00037914186 29.1104823,0.01791113 29.1104823,0.01791113 C29.1104823,0.01791113 29.4195989,0.442369791 29.3033342,1.95012078 C29.2507382,2.63294558 28.2320374,7.05377481 27.1321358,11.6886788 C29.1086368,11.6388511 31.0854454,11.6200888 33.0625615,11.6323919 Z" id="Path" fill="url(#linearGradient-2)"></path>
                <path d="M71.3293553,0.01791113 L59.1944513,0.01791113 C59.1944513,0.01791113 59.5035679,0.442369791 59.3873031,1.95012078 C59.328248,2.71783731 58.0465674,8.21642245 56.8036417,13.4280366 C57.6802411,13.5719835 58.5549951,13.7282335 59.4279035,13.8967866 C60.1513287,14.0305834 60.871063,14.1966759 61.5907972,14.3526183 C61.9506644,14.4282827 62.308686,14.521479 62.6667077,14.6100617 C63.0247293,14.6986444 63.3809055,14.7899953 63.7370817,14.8822689 L64.7982283,15.1904628 C64.9753937,15.242136 65.1525591,15.2910411 65.3288017,15.3454825 L65.8529158,15.5198796 L66.3761073,15.6979677 L66.3853346,15.6979677 L69.0511196,4.6943383 C69.6555118,2.26108288 71.3293553,0.01791113 71.3293553,0.01791113 Z" id="Path" fill="url(#linearGradient-3)"></path>
            </g>
            <g id="Bottom-Gradients" opacity="0.47" style="mix-blend-mode: overlay;" transform="translate(0.000000, 13.469194)">
                <path d="M10.4573696,0.925870594 C9.72840797,0.980312031 9.0031373,1.06704924 8.27509843,1.13348624 C7.90600394,1.16578201 7.54798228,1.2137643 7.18442421,1.25251922 C6.82086614,1.29127414 6.46099902,1.32633811 6.09190453,1.37339766 C5.36663386,1.46567128 4.63951772,1.55794491 3.91609252,1.66867325 L3.60420768,1.71388733 C2.56705217,6.03598378 1.6609252,9.74169244 1.6609252,9.74169244 C1.6609252,9.74169244 1.15895669,11.7514119 0,13.2591629 L21.7636565,13.2591629 C21.7636565,13.2591629 24.4303642,13.7611314 25.281127,7.26783664 C24.6961741,8.10108284 23.7476971,8.60396431 22.7297613,8.62056794 C20.9904035,8.65932286 11.9457431,8.65932286 11.9457431,8.65932286 L13.6583415,1.77755613 L19.5131029,1.77755613 C24.6896531,1.95472148 24.9369464,2.62831892 24.9369464,2.62831892 L25.5108883,0.115708193 C23.4088952,0.172302681 21.3075172,0.248889787 19.2067544,0.345469512 C16.2853716,0.482957208 13.3695251,0.667504453 10.4573696,0.925870594 Z" id="Path" fill="url(#linearGradient-4)"></path>
                <path d="M52.0441683,0.442356815 L49.8563607,0.331628468 C48.3975148,0.276264295 46.9395915,0.202445397 45.4798228,0.167381421 C42.5615157,0.0744926415 39.6416708,0.0212815195 36.7202879,0.00774805493 C34.603531,-0.00640056712 32.4870817,-0.00117172853 30.37094,0.0234345707 C29.177842,5.02374215 28.023499,9.74076971 28.023499,9.74076971 C28.023499,9.74076971 27.5215305,11.7504892 26.3625738,13.2582402 L38.203125,13.2582402 C38.203125,13.2582402 37.486159,11.9765596 38.3101624,8.65840012 L39.4949557,3.89431302 L50.443221,3.77251183 C50.443221,3.77251183 54.3953002,4.14160632 56.4880659,0.727482307 C55.7375738,0.672118134 54.9870817,0.620752484 54.2365896,0.573385358 L52.0441683,0.442356815 Z" id="Path" fill="url(#linearGradient-5)"></path>
                <path d="M69.4525098,2.32012502 L68.9164001,2.20386026 C68.7373893,2.16879628 68.556533,2.13834599 68.3765994,2.10605022 L67.2988435,1.91319835 L66.2146284,1.75079678 C65.8538386,1.6954326 65.4939715,1.63637748 65.1313361,1.59485435 C64.4060655,1.50258073 63.6854085,1.39554333 62.9582923,1.32356991 C62.0447835,1.21960829 61.1303519,1.12456646 60.2149975,1.03844441 C59.1123278,5.64289815 58.1102362,9.74076971 58.1102362,9.74076971 C58.1102362,9.74076971 57.6082677,11.7504892 56.449311,13.2582402 L68.3526083,13.2582402 C67.7334523,12.6030975 68.1837475,9.96960829 68.1837475,9.96960829 L70.007997,2.43546705 L69.9895423,2.43546705 L69.4525098,2.32012502 Z" id="Path" fill="url(#linearGradient-6)"></path>
            </g>
            <g id="Group" opacity="0.23" style="mix-blend-mode: overlay;" transform="translate(3.671567, 0.000379)" fill="#0A60FF">
                <path d="M18.0653297,0.276820866 C21.8605438,0.276820866 24.1304749,0.282357283 24.8132997,0.294352854 C25.0184783,0.284720025 25.2137606,0.383061136 25.3281865,0.553641732 C25.9408834,1.44223671 25.2792815,4.134781 24.7874631,5.69143701 C24.3814592,5.13779528 23.6626476,4.84251969 23.0462598,4.67642717 C22.314345,4.49853413 21.5636919,4.40931082 20.81047,4.41067913 L12.3858883,4.41067913 L12.3332923,4.62106299 L10.8458415,10.6123893 L10.7609498,10.9556471 L16.1589567,10.9556471 C17.9785925,10.917815 19.4485113,10.8421506 20.5299582,10.7314222 C21.3604208,10.6465305 21.9066806,10.546875 22.2674705,10.4389149 L22.0007997,11.6061762 C19.7760827,11.7261319 17.5578248,11.8885335 15.402313,12.0906127 C12.2105684,12.3941929 9.33993602,12.7632874 6.62432333,13.2181964 L6.07621801,13.31047 L5.53180364,13.4092028 L4.45035679,13.6158957 C4.21229085,13.6592643 3.97330217,13.7081693 3.74261811,13.757997 L3.36060531,13.8373524 L3.15298967,13.880721 C2.86509596,13.9406988 2.5679749,14.0025221 2.27362205,14.0717274 C2.10199311,14.1132505 1.93036417,14.1529281 1.7578125,14.1935285 C1.30474902,14.2996432 0.83507628,14.4094488 0.37832185,14.5294045 C2.20810778,6.87807579 3.16313976,2.65378937 3.21573573,1.97096457 C3.27940453,1.14050197 3.21573573,0.615465059 3.1437623,0.293430118 C4.92925689,0.289739173 12.3858883,0.276820866 18.0653297,0.276820866 M18.0653297,0 C11.5249754,0 2.74790846,0.0175319882 2.74790846,0.0175319882 C2.74790846,0.0175319882 3.0570251,0.44199065 2.94076033,1.94974163 C2.8761688,2.79127707 1.3425812,9.31594488 0,14.9178765 L0.19285187,14.8662032 C0.902436024,14.6715059 1.6203248,14.5118725 2.33729085,14.3411663 C2.6953125,14.2562746 3.05610236,14.1833784 3.41596949,14.1086368 C3.77583661,14.0338952 4.13662648,13.9545399 4.49833907,13.8881029 L5.58439961,13.6869464 L6.12789124,13.5882136 L6.67230561,13.49594 C9.5761565,13.009658 12.5003076,12.6497908 15.4299951,12.3711245 C17.6925443,12.1595103 19.9578617,11.9949557 22.2259473,11.8774606 L22.6808563,9.88804134 C22.4612451,10.4213829 19.2667323,10.6188484 16.1552657,10.6843627 L11.1152805,10.6843627 L12.603654,4.69303642 L20.81047,4.69303642 C21.4822219,4.69303642 24.5770792,4.78531004 24.8179134,6.47207185 C24.8179134,6.47207185 27.1367495,0.0562869094 24.8179134,0.0175319882 C24.0446604,0.0046136811 21.3364296,0 18.0653297,0 Z" id="Shape"></path>
                <path d="M44.4269808,0.287893701 C48.2240404,0.287893701 50.4948942,0.287893701 51.1786417,0.294352854 C53.2861713,0.306348425 54.3786909,1.52620571 54.388841,1.53727854 L54.388841,1.54189222 L54.388841,1.54189222 C55.0808932,2.2800812 55.2977362,3.81920522 55.0153789,5.98578986 C54.7708538,7.85986713 54.1415477,10.2091535 53.238189,12.6221088 C52.3929626,12.5113804 51.5440453,12.408034 50.7098917,12.3148376 C48.6946358,12.0878445 46.5677288,11.9014518 44.2212106,11.7464321 C44.3241349,11.5197469 44.3982243,11.2810488 44.4417446,11.0359252 C44.8163755,9.00590551 45.4567544,6.26906988 45.5065822,6.05314961 C45.5444144,5.94057579 45.6911294,5.41830709 45.3912402,4.98000738 C45.1347195,4.61091289 44.6447466,4.41713829 43.9351624,4.41713829 L38.7493848,4.41713829 L38.6967889,4.62752215 L37.0109498,11.4160925 L36.7802657,11.4160925 C35.5622539,11.3902559 34.302719,11.3634966 33.0634843,11.3598056 C32.6703986,11.3598056 32.2726993,11.3598056 31.8814592,11.3598056 C30.4207677,11.3598056 28.9425443,11.3773376 27.4836983,11.4105561 C28.8290477,5.72096457 29.5340182,2.55044291 29.5783095,1.97096457 C29.6419783,1.14050197 29.5829232,0.616387795 29.5063361,0.293430118 C31.2936762,0.293430118 38.7484621,0.287893701 44.4269808,0.287893701 M44.4269808,0.0110728346 C37.8875492,0.0110728346 29.1095595,0.0175319882 29.1095595,0.0175319882 C29.1095595,0.0175319882 29.4186762,0.44199065 29.3024114,1.94974163 C29.2498155,2.63256644 28.2311147,7.05339567 27.1312131,11.6882997 C28.7146284,11.6483145 30.2980438,11.6283219 31.8814592,11.6283219 C32.2745448,11.6283219 32.667938,11.6283219 33.0616388,11.6283219 C34.4503568,11.6283219 35.8381521,11.6652313 37.2268701,11.6938361 L38.9653051,4.69026821 L43.943467,4.69026821 C45.7372662,4.69026821 45.248216,5.97194882 45.248216,5.97194882 C45.248216,5.97194882 44.5727731,8.84442667 44.177842,10.9851747 C44.1192075,11.3501194 43.9757174,11.6962025 43.7589198,11.9955709 C46.070374,12.1422859 48.3799828,12.3323696 50.6840551,12.5916585 C51.5981791,12.6943898 52.511688,12.8060408 53.4245817,12.9266117 C55.2220719,8.20589321 56.2278543,3.09854823 54.5983022,1.35642224 C54.5983022,1.35642224 53.451341,0.0304502953 51.1841781,0.0175319882 C50.4109252,0.0175319882 47.6999262,0.0110728346 44.4306718,0.0110728346 L44.4269808,0.0110728346 Z" id="Shape"></path>
                <path d="M70.795091,0.294352854 C70.2737451,1.0749877 69.2356668,2.78574065 68.7779897,4.63121309 L66.1851009,15.3423351 L65.9378076,15.2583661 L65.4127707,15.083969 L65.4063115,15.083969 C65.2909695,15.0479823 65.1728593,15.0147638 65.0593627,14.9815453 L64.8748155,14.9280266 L63.8118233,14.6198327 L63.8044414,14.6198327 C63.3892101,14.5118725 63.0477977,14.4251353 62.7303765,14.3430118 L62.5402928,14.2950295 C62.2487082,14.2221334 61.9469734,14.146469 61.6470842,14.0837229 L61.1571112,13.9766855 C60.6034695,13.8548844 60.0396777,13.730315 59.4777313,13.6269685 C58.7395423,13.4820989 57.9690576,13.3436885 57.138595,13.2052781 C58.7635335,6.39087106 59.6124508,2.61226624 59.6613558,1.97281004 C59.7250246,1.14234744 59.6668922,0.618233268 59.5893824,0.296198327 L70.795091,0.296198327 M71.3256644,0.0193774606 L59.1935285,0.0193774606 C59.1935285,0.0193774606 59.5026452,0.443836122 59.3863804,1.95158711 C59.3273253,2.71930364 58.0456447,8.21788878 56.802719,13.429503 C57.6793184,13.5734498 58.5540723,13.7296998 59.4269808,13.898253 C60.150406,14.0320497 60.8701403,14.1981422 61.5898745,14.3540846 C61.9497416,14.429749 62.3077633,14.5229454 62.6657849,14.6115281 C63.0238066,14.7001107 63.3799828,14.7914616 63.7370817,14.8837352 L64.7973056,15.1900837 C64.974471,15.2417569 65.1516363,15.2906619 65.3278789,15.3451033 L65.8519931,15.5195005 L66.3751845,15.6975886 L66.3844119,15.6975886 L69.0501969,4.69395915 C69.6545891,2.26070374 71.3284326,0.0175319882 71.3284326,0.0175319882 L71.3256644,0.0193774606 Z" id="Shape"></path>
            </g>
            <g id="Group" opacity="0.23" style="mix-blend-mode: overlay;" transform="translate(0.000000, 13.469560)" fill="#000E29">
                <path d="M25.1574803,0.402312992 L24.7514764,2.17858022 C24.1304749,1.90175935 22.703002,1.60925197 19.5186393,1.50036909 L13.4378076,1.50036909 L13.3861344,1.71075295 L11.6772269,8.59067421 L11.5914124,8.93485482 L11.9457431,8.93485482 C12.0380167,8.93485482 21.0134719,8.93485482 22.7362205,8.8960999 C23.5167627,8.88466463 24.2702739,8.60844229 24.8732776,8.11269685 C24.0677288,12.7429872 22.2674705,12.9893578 21.8965305,12.9893578 C21.8691741,12.9907637 21.8417634,12.9907637 21.814407,12.9893578 L21.814407,12.9893578 L21.7894931,12.9847441 L0.537955217,12.9847441 C1.49390994,11.53328 1.91375492,9.8871186 1.93313238,9.80960876 C1.94143701,9.77269931 2.82541831,6.16110974 3.83212352,1.96635089 L3.96315207,1.94697343 C4.52417569,1.8546998 5.09996309,1.78457185 5.65637303,1.71352116 L6.13065945,1.65354331 C6.328125,1.62770669 6.5320497,1.60556102 6.72859252,1.58433809 C6.88914862,1.56772884 7.05431841,1.55019685 7.21487451,1.53081939 L7.60334646,1.48652805 C7.8312623,1.4597687 8.06471457,1.43208661 8.3000123,1.41178642 C8.57683317,1.3859498 8.86657234,1.35642224 9.14154774,1.32874016 C9.57984744,1.28444882 10.0329109,1.23646654 10.4813607,1.20417077 C13.2338829,0.962413878 16.0906742,0.774175689 19.2159818,0.62746063 C21.1417323,0.535187008 23.1385335,0.463213583 25.1574803,0.407849409 M25.5071973,0.120878445 C23.4052042,0.177472933 21.3038263,0.254060039 19.2030635,0.350639764 C16.2853716,0.488127461 13.3695251,0.672674705 10.4573696,0.928272638 C9.72840797,0.982714075 9.0031373,1.06945128 8.27509843,1.13588829 C7.90600394,1.16818406 7.54890502,1.21616634 7.18442421,1.25492126 C6.81994341,1.29367618 6.46099902,1.32597195 6.09190453,1.3730315 C5.36663386,1.46530512 4.63951772,1.55757874 3.91609252,1.66830709 L3.60420768,1.71352116 C2.56705217,6.03561762 1.6609252,9.74132628 1.6609252,9.74132628 C1.6609252,9.74132628 1.15895669,11.7510458 0,13.2587968 L21.7636565,13.2587968 C21.8076678,13.2649833 21.8520914,13.2677597 21.8965305,13.267196 C22.4455586,13.267196 24.5447835,12.890625 25.281127,7.26931594 C24.6961741,8.10256214 23.7476971,8.60544362 22.7297613,8.62204724 C20.9904035,8.66080217 11.9457431,8.66080217 11.9457431,8.66080217 L13.6583415,1.77718996 L19.5131029,1.77718996 C24.6896531,1.95435531 24.9369464,2.62795276 24.9369464,2.62795276 L25.5108883,0.115342028 L25.5071973,0.120878445 Z" id="Shape"></path>
                <path d="M34.4143701,0.279589075 C35.1793184,0.279589075 35.9553396,0.279589075 36.7212106,0.286970965 C39.5355561,0.296198327 42.3988066,0.347871555 45.4742864,0.445681594 C46.4680733,0.470595472 47.4784695,0.513041339 48.4556471,0.553641732 C48.9170153,0.573019193 49.3839198,0.59331939 49.8397515,0.610851378 L52.0247908,0.720656988 L54.2098302,0.848917323 C54.8077633,0.887672244 55.4038509,0.927349902 55.9860974,0.968873031 C55.3057286,1.91795099 54.3571331,2.6419299 53.2621801,3.04779774 C52.4683119,3.34732456 51.6275728,3.5035377 50.7790969,3.50916585 C50.5816314,3.50916585 50.4662894,3.49901575 50.4653666,3.49901575 L50.4515256,3.49901575 L50.4367618,3.49901575 L39.4884966,3.62081693 L39.2744218,3.62081693 L39.2227485,3.82843258 L38.0398007,8.59159695 C37.447404,10.9741019 37.6337968,12.3535925 37.8072712,12.9819759 L26.900529,12.9819759 C27.8564838,11.5305118 28.275406,9.88435039 28.2947835,9.80684055 C28.306779,9.759781 29.4306718,5.16547736 30.5923967,0.30265748 C31.8602362,0.288816437 33.1456078,0.281434547 34.4143701,0.281434547 M34.4143701,0.0046136811 C33.0671752,0.0046136811 31.7202879,0.0123031496 30.3737082,0.0276820866 C29.1806102,5.02798967 28.0262672,9.74501722 28.0262672,9.74501722 C28.0262672,9.74501722 27.5242987,11.7547367 26.365342,13.2624877 L38.203125,13.2624877 C38.203125,13.2624877 37.486159,11.9808071 38.3101624,8.66264764 L39.4949557,3.89394685 L50.443221,3.77214567 C50.443221,3.77214567 50.5677904,3.78414124 50.7827879,3.78414124 C51.783034,3.78414124 54.7653174,3.5359252 56.4880659,0.724347933 C55.7375738,0.66898376 54.9870817,0.61761811 54.2365896,0.570250984 L52.0441683,0.44199065 L49.8563607,0.331262303 C48.3975148,0.27589813 46.9395915,0.202079232 45.4798228,0.167015256 C42.5615157,0.0741264764 39.6416708,0.0209153543 36.7202879,0.00738188976 C35.9507259,0.00246062992 35.181779,0 34.4134473,0 L34.4143701,0.0046136811 Z" id="Shape"></path>
                <path d="M60.4281496,1.33704478 C61.3148991,1.42193652 62.1352116,1.50867372 62.9306102,1.59910187 C63.4076649,1.64616142 63.8921014,1.71075295 64.3599286,1.77257628 C64.6007628,1.80487205 64.8508243,1.83809055 65.0981176,1.8648499 C65.3915477,1.89806841 65.6895915,1.94420522 65.9774852,1.98941929 L66.1731053,2.01986959 L67.2527067,2.18134843 L68.3267717,2.37327756 L68.5187008,2.4074188 C68.6321973,2.427719 68.7466166,2.44801919 68.8601132,2.47016486 L69.3916093,2.58642963 L69.6684301,2.64456201 L67.9152313,9.90372785 L67.9152313,9.91295522 L67.9152313,9.92218258 C67.8375841,10.3957806 67.7855278,10.8732206 67.7592889,11.3524237 C67.7260704,12.0601624 67.769439,12.5981176 67.8940084,12.9792077 L56.984498,12.9792077 C57.9404528,11.5277436 58.3602977,9.88158219 58.3796752,9.80407234 C58.3889026,9.76347195 59.3605438,5.79386073 60.4281496,1.33519931 M60.2149975,1.03623278 C59.1123278,5.64068652 58.1102362,9.73855807 58.1102362,9.73855807 C58.1102362,9.73855807 57.6082677,11.7482776 56.449311,13.2560285 L68.3526083,13.2560285 C67.7334523,12.6008858 68.1837475,9.96739665 68.1837475,9.96739665 L70.007997,2.43325541 L69.9895423,2.43325541 L69.4525098,2.32160433 L68.9164001,2.20533957 C68.7373893,2.17027559 68.556533,2.1398253 68.3765994,2.10752953 L67.2988435,1.91467766 L66.2146284,1.75227608 C65.8538386,1.69691191 65.4939715,1.63785679 65.1313361,1.59633366 C64.4060655,1.50406004 63.6854085,1.39702264 62.9582923,1.32504921 C62.0447835,1.2210876 61.1303519,1.12604577 60.2149975,1.03992372 L60.2149975,1.03623278 Z" id="Shape"></path>
            </g>
            <g id="Group" opacity="0.23" style="mix-blend-mode: overlay;" transform="translate(3.671567, 0.000379)" fill="#FFFFFF">
                <path d="M18.0653297,0.276820866 C21.8605438,0.276820866 24.1304749,0.282357283 24.8132997,0.294352854 C25.0184783,0.284720025 25.2137606,0.383061136 25.3281865,0.553641732 C25.9408834,1.44223671 25.2792815,4.134781 24.7874631,5.69143701 C24.3814592,5.13779528 23.6626476,4.84251969 23.0462598,4.67642717 C22.314345,4.49853413 21.5636919,4.40931082 20.81047,4.41067913 L12.3858883,4.41067913 L12.3332923,4.62106299 L10.8458415,10.6123893 L10.7609498,10.9556471 L16.1589567,10.9556471 C17.9785925,10.917815 19.4485113,10.8421506 20.5299582,10.7314222 C21.3604208,10.6465305 21.9066806,10.546875 22.2674705,10.4389149 L22.0007997,11.6061762 C19.7760827,11.7261319 17.5578248,11.8885335 15.402313,12.0906127 C12.2105684,12.3941929 9.33993602,12.7632874 6.62432333,13.2181964 L6.07621801,13.31047 L5.53180364,13.4092028 L4.45035679,13.6158957 C4.21229085,13.6592643 3.97330217,13.7081693 3.74261811,13.757997 L3.36060531,13.8373524 L3.15298967,13.880721 C2.86509596,13.9406988 2.5679749,14.0025221 2.27362205,14.0717274 C2.10199311,14.1132505 1.93036417,14.1529281 1.7578125,14.1935285 C1.30474902,14.2996432 0.83507628,14.4094488 0.37832185,14.5294045 C2.20810778,6.87807579 3.16313976,2.65378937 3.21573573,1.97096457 C3.27940453,1.14050197 3.21573573,0.615465059 3.1437623,0.293430118 C4.92925689,0.289739173 12.3858883,0.276820866 18.0653297,0.276820866 M18.0653297,0 C11.5249754,0 2.74790846,0.0175319882 2.74790846,0.0175319882 C2.74790846,0.0175319882 3.0570251,0.44199065 2.94076033,1.94974163 C2.8761688,2.79127707 1.3425812,9.31594488 0,14.9178765 L0.19285187,14.8662032 C0.902436024,14.6715059 1.6203248,14.5118725 2.33729085,14.3411663 C2.6953125,14.2562746 3.05610236,14.1833784 3.41596949,14.1086368 C3.77583661,14.0338952 4.13662648,13.9545399 4.49833907,13.8881029 L5.58439961,13.6869464 L6.12789124,13.5882136 L6.67230561,13.49594 C9.5761565,13.009658 12.5003076,12.6497908 15.4299951,12.3711245 C17.6925443,12.1595103 19.9578617,11.9949557 22.2259473,11.8774606 L22.6808563,9.88804134 C22.4612451,10.4213829 19.2667323,10.6188484 16.1552657,10.6843627 L11.1152805,10.6843627 L12.603654,4.69303642 L20.81047,4.69303642 C21.4822219,4.69303642 24.5770792,4.78531004 24.8179134,6.47207185 C24.8179134,6.47207185 27.1367495,0.0562869094 24.8179134,0.0175319882 C24.0446604,0.0046136811 21.3364296,0 18.0653297,0 Z" id="Shape"></path>
                <path d="M44.4269808,0.287893701 C48.2240404,0.287893701 50.4948942,0.287893701 51.1786417,0.294352854 C53.2861713,0.306348425 54.3786909,1.52620571 54.388841,1.53727854 L54.388841,1.54189222 L54.388841,1.54189222 C55.0808932,2.2800812 55.2977362,3.81920522 55.0153789,5.98578986 C54.7708538,7.85986713 54.1415477,10.2091535 53.238189,12.6221088 C52.3929626,12.5113804 51.5440453,12.408034 50.7098917,12.3148376 C48.6946358,12.0878445 46.5677288,11.9014518 44.2212106,11.7464321 C44.3241349,11.5197469 44.3982243,11.2810488 44.4417446,11.0359252 C44.8163755,9.00590551 45.4567544,6.26906988 45.5065822,6.05314961 C45.5444144,5.94057579 45.6911294,5.41830709 45.3912402,4.98000738 C45.1347195,4.61091289 44.6447466,4.41713829 43.9351624,4.41713829 L38.7493848,4.41713829 L38.6967889,4.62752215 L37.0109498,11.4160925 L36.7802657,11.4160925 C35.5622539,11.3902559 34.302719,11.3634966 33.0634843,11.3598056 C32.6703986,11.3598056 32.2726993,11.3598056 31.8814592,11.3598056 C30.4207677,11.3598056 28.9425443,11.3773376 27.4836983,11.4105561 C28.8290477,5.72096457 29.5340182,2.55044291 29.5783095,1.97096457 C29.6419783,1.14050197 29.5829232,0.616387795 29.5063361,0.293430118 C31.2936762,0.293430118 38.7484621,0.287893701 44.4269808,0.287893701 M44.4269808,0.0110728346 C37.8875492,0.0110728346 29.1095595,0.0175319882 29.1095595,0.0175319882 C29.1095595,0.0175319882 29.4186762,0.44199065 29.3024114,1.94974163 C29.2498155,2.63256644 28.2311147,7.05339567 27.1312131,11.6882997 C28.7146284,11.6483145 30.2980438,11.6283219 31.8814592,11.6283219 C32.2745448,11.6283219 32.667938,11.6283219 33.0616388,11.6283219 C34.4503568,11.6283219 35.8381521,11.6652313 37.2268701,11.6938361 L38.9653051,4.69026821 L43.943467,4.69026821 C45.7372662,4.69026821 45.248216,5.97194882 45.248216,5.97194882 C45.248216,5.97194882 44.5727731,8.84442667 44.177842,10.9851747 C44.1192075,11.3501194 43.9757174,11.6962025 43.7589198,11.9955709 C46.070374,12.1422859 48.3799828,12.3323696 50.6840551,12.5916585 C51.5981791,12.6943898 52.511688,12.8060408 53.4245817,12.9266117 C55.2220719,8.20589321 56.2278543,3.09854823 54.5983022,1.35642224 C54.5983022,1.35642224 53.451341,0.0304502953 51.1841781,0.0175319882 C50.4109252,0.0175319882 47.6999262,0.0110728346 44.4306718,0.0110728346 L44.4269808,0.0110728346 Z" id="Shape"></path>
                <path d="M70.795091,0.294352854 C70.2737451,1.0749877 69.2356668,2.78574065 68.7779897,4.63121309 L66.1851009,15.3423351 L65.9378076,15.2583661 L65.4127707,15.083969 L65.4063115,15.083969 C65.2909695,15.0479823 65.1728593,15.0147638 65.0593627,14.9815453 L64.8748155,14.9280266 L63.8118233,14.6198327 L63.8044414,14.6198327 C63.3892101,14.5118725 63.0477977,14.4251353 62.7303765,14.3430118 L62.5402928,14.2950295 C62.2487082,14.2221334 61.9469734,14.146469 61.6470842,14.0837229 L61.1571112,13.9766855 C60.6034695,13.8548844 60.0396777,13.730315 59.4777313,13.6269685 C58.7395423,13.4820989 57.9690576,13.3436885 57.138595,13.2052781 C58.7635335,6.39087106 59.6124508,2.61226624 59.6613558,1.97281004 C59.7250246,1.14234744 59.6668922,0.618233268 59.5893824,0.296198327 L70.795091,0.296198327 M71.3256644,0.0193774606 L59.1935285,0.0193774606 C59.1935285,0.0193774606 59.5026452,0.443836122 59.3863804,1.95158711 C59.3273253,2.71930364 58.0456447,8.21788878 56.802719,13.429503 C57.6793184,13.5734498 58.5540723,13.7296998 59.4269808,13.898253 C60.150406,14.0320497 60.8701403,14.1981422 61.5898745,14.3540846 C61.9497416,14.429749 62.3077633,14.5229454 62.6657849,14.6115281 C63.0238066,14.7001107 63.3799828,14.7914616 63.7370817,14.8837352 L64.7973056,15.1900837 C64.974471,15.2417569 65.1516363,15.2906619 65.3278789,15.3451033 L65.8519931,15.5195005 L66.3751845,15.6975886 L66.3844119,15.6975886 L69.0501969,4.69395915 C69.6545891,2.26070374 71.3284326,0.0175319882 71.3284326,0.0175319882 L71.3256644,0.0193774606 Z" id="Shape"></path>
            </g>
            <g id="Group" opacity="0.23" style="mix-blend-mode: overlay;" transform="translate(0.000000, 13.469560)" fill="#FFFFFF">
                <path d="M25.1574803,0.402312992 L24.7514764,2.17858022 C24.1304749,1.90175935 22.703002,1.60925197 19.5186393,1.50036909 L13.4378076,1.50036909 L13.3861344,1.71075295 L11.6772269,8.59067421 L11.5914124,8.93485482 L11.9457431,8.93485482 C12.0380167,8.93485482 21.0134719,8.93485482 22.7362205,8.8960999 C23.5167627,8.88466463 24.2702739,8.60844229 24.8732776,8.11269685 C24.0677288,12.7429872 22.2674705,12.9893578 21.8965305,12.9893578 C21.8691741,12.9907637 21.8417634,12.9907637 21.814407,12.9893578 L21.814407,12.9893578 L21.7894931,12.9847441 L0.537955217,12.9847441 C1.49390994,11.53328 1.91375492,9.8871186 1.93313238,9.80960876 C1.94143701,9.77269931 2.82541831,6.16110974 3.83212352,1.96635089 L3.96315207,1.94697343 C4.52417569,1.8546998 5.09996309,1.78457185 5.65637303,1.71352116 L6.13065945,1.65354331 C6.328125,1.62770669 6.5320497,1.60556102 6.72859252,1.58433809 C6.88914862,1.56772884 7.05431841,1.55019685 7.21487451,1.53081939 L7.60334646,1.48652805 C7.8312623,1.4597687 8.06471457,1.43208661 8.3000123,1.41178642 C8.57683317,1.3859498 8.86657234,1.35642224 9.14154774,1.32874016 C9.57984744,1.28444882 10.0329109,1.23646654 10.4813607,1.20417077 C13.2338829,0.962413878 16.0906742,0.774175689 19.2159818,0.62746063 C21.1417323,0.535187008 23.1385335,0.463213583 25.1574803,0.407849409 M25.5071973,0.120878445 C23.4052042,0.177472933 21.3038263,0.254060039 19.2030635,0.350639764 C16.2853716,0.488127461 13.3695251,0.672674705 10.4573696,0.928272638 C9.72840797,0.982714075 9.0031373,1.06945128 8.27509843,1.13588829 C7.90600394,1.16818406 7.54890502,1.21616634 7.18442421,1.25492126 C6.81994341,1.29367618 6.46099902,1.32597195 6.09190453,1.3730315 C5.36663386,1.46530512 4.63951772,1.55757874 3.91609252,1.66830709 L3.60420768,1.71352116 C2.56705217,6.03561762 1.6609252,9.74132628 1.6609252,9.74132628 C1.6609252,9.74132628 1.15895669,11.7510458 2.62257407e-15,13.2587968 L21.7636565,13.2587968 C21.8076678,13.2649833 21.8520914,13.2677597 21.8965305,13.267196 C22.4455586,13.267196 24.5447835,12.890625 25.281127,7.26931594 C24.6961741,8.10256214 23.7476971,8.60544362 22.7297613,8.62204724 C20.9904035,8.66080217 11.9457431,8.66080217 11.9457431,8.66080217 L13.6583415,1.77718996 L19.5131029,1.77718996 C24.6896531,1.95435531 24.9369464,2.62795276 24.9369464,2.62795276 L25.5108883,0.115342028 L25.5071973,0.120878445 Z" id="Shape"></path>
                <path d="M34.4143701,0.279589075 C35.1793184,0.279589075 35.9553396,0.279589075 36.7212106,0.286970965 C39.5355561,0.296198327 42.3988066,0.347871555 45.4742864,0.445681594 C46.4680733,0.470595472 47.4784695,0.513041339 48.4556471,0.553641732 C48.9170153,0.573019193 49.3839198,0.59331939 49.8397515,0.610851378 L52.0247908,0.720656988 L54.2098302,0.848917323 C54.8077633,0.887672244 55.4038509,0.927349902 55.9860974,0.968873031 C55.3057286,1.91795099 54.3571331,2.6419299 53.2621801,3.04779774 C52.4683119,3.34732456 51.6275728,3.5035377 50.7790969,3.50916585 C50.5816314,3.50916585 50.4662894,3.49901575 50.4653666,3.49901575 L50.4515256,3.49901575 L50.4367618,3.49901575 L39.4884966,3.62081693 L39.2744218,3.62081693 L39.2227485,3.82843258 L38.0398007,8.59159695 C37.447404,10.9741019 37.6337968,12.3535925 37.8072712,12.9819759 L26.900529,12.9819759 C27.8564838,11.5305118 28.275406,9.88435039 28.2947835,9.80684055 C28.306779,9.759781 29.4306718,5.16547736 30.5923967,0.30265748 C31.8602362,0.288816437 33.1456078,0.281434547 34.4143701,0.281434547 M34.4143701,0.0046136811 C33.0671752,0.0046136811 31.7202879,0.0123031496 30.3737082,0.0276820866 C29.1806102,5.02798967 28.0262672,9.74501722 28.0262672,9.74501722 C28.0262672,9.74501722 27.5242987,11.7547367 26.365342,13.2624877 L38.203125,13.2624877 C38.203125,13.2624877 37.486159,11.9808071 38.3101624,8.66264764 L39.4949557,3.89394685 L50.443221,3.77214567 C50.443221,3.77214567 50.5677904,3.78414124 50.7827879,3.78414124 C51.783034,3.78414124 54.7653174,3.5359252 56.4880659,0.724347933 C55.7375738,0.66898376 54.9870817,0.61761811 54.2365896,0.570250984 L52.0441683,0.44199065 L49.8563607,0.331262303 C48.3975148,0.27589813 46.9395915,0.202079232 45.4798228,0.167015256 C42.5615157,0.0741264764 39.6416708,0.0209153543 36.7202879,0.00738188976 C35.9507259,0.00246062992 35.181779,2.62257407e-15 34.4134473,2.62257407e-15 L34.4143701,0.0046136811 Z" id="Shape"></path>
                <path d="M60.4281496,1.33704478 C61.3148991,1.42193652 62.1352116,1.50867372 62.9306102,1.59910187 C63.4076649,1.64616142 63.8921014,1.71075295 64.3599286,1.77257628 C64.6007628,1.80487205 64.8508243,1.83809055 65.0981176,1.8648499 C65.3915477,1.89806841 65.6895915,1.94420522 65.9774852,1.98941929 L66.1731053,2.01986959 L67.2527067,2.18134843 L68.3267717,2.37327756 L68.5187008,2.4074188 C68.6321973,2.427719 68.7466166,2.44801919 68.8601132,2.47016486 L69.3916093,2.58642963 L69.6684301,2.64456201 L67.9152313,9.90372785 L67.9152313,9.91295522 L67.9152313,9.92218258 C67.8375841,10.3957806 67.7855278,10.8732206 67.7592889,11.3524237 C67.7260704,12.0601624 67.769439,12.5981176 67.8940084,12.9792077 L56.984498,12.9792077 C57.9404528,11.5277436 58.3602977,9.88158219 58.3796752,9.80407234 C58.3889026,9.76347195 59.3605438,5.79386073 60.4281496,1.33519931 M60.2149975,1.03623278 C59.1123278,5.64068652 58.1102362,9.73855807 58.1102362,9.73855807 C58.1102362,9.73855807 57.6082677,11.7482776 56.449311,13.2560285 L68.3526083,13.2560285 C67.7334523,12.6008858 68.1837475,9.96739665 68.1837475,9.96739665 L70.007997,2.43325541 L69.9895423,2.43325541 L69.4525098,2.32160433 L68.9164001,2.20533957 C68.7373893,2.17027559 68.556533,2.1398253 68.3765994,2.10752953 L67.2988435,1.91467766 L66.2146284,1.75227608 C65.8538386,1.69691191 65.4939715,1.63785679 65.1313361,1.59633366 C64.4060655,1.50406004 63.6854085,1.39702264 62.9582923,1.32504921 C62.0447835,1.2210876 61.1303519,1.12604577 60.2149975,1.03992372 L60.2149975,1.03623278 Z" id="Shape"></path>
            </g>
        </g>
    </g>
</svg>