<?xml version="1.0" encoding="UTF-8"?>
<svg width="42px" height="42px" viewBox="0 0 42 42" version="1.1" xmlns="http://www.w3.org/2000/svg" xmlns:xlink="http://www.w3.org/1999/xlink">
    <title>facebook-5988_f704532b-b66c-467a-b5fe-cac6fbf97290</title>
    <g id="Symbols" stroke="none" stroke-width="1" fill="none" fill-rule="evenodd" stroke-linecap="round" stroke-linejoin="round">
        <g id="Components-/-Reusables-/-Footers-/-Footer-Dark" transform="translate(-1218.000000, -1604.000000)" stroke="#4267B2" stroke-width="2">
            <g id="Group-12" transform="translate(0.000000, 1454.000000)">
                <g id="Group-7" transform="translate(1209.000000, 75.000000)">
                    <g id="facebook" transform="translate(0.000000, 66.000000)">
                        <g id="facebook-5988_f704532b-b66c-467a-b5fe-cac6fbf97290" transform="translate(10.000000, 10.000001)">
                            <path d="M36.25,0 L3.75,0 C1.68151543,0.00622325037 0.00622325037,1.68151543 0,3.75 L0,36.25 C0.00622325037,38.3184846 1.68151543,39.9937767 3.75,40 L21.25,40 L21.25,23.75 L16.8746667,23.75 L16.8746667,17.5 L21.25,17.5 L21.25,14.3753333 C21.3513333,10.8713333 22.258,7.754 28.1993333,7.50066667 L33.1253333,7.50066667 L33.1253333,13.696 L28.9606667,13.696 C28.4251818,13.6639422 27.8998048,13.851793 27.5060442,14.2161065 C27.1122836,14.58042 26.8842442,15.0896419 26.8746667,15.626 L26.8746667,17.5 L33.1246667,17.5 L32.058,23.75 L26.8746667,23.75 L26.8746667,40 L36.25,40 C38.3184846,39.9937767 39.9937767,38.3184846 40,36.25 L40,3.75 C39.9937767,1.68151543 38.3184846,0.00622325037 36.25,0 Z" id="Path"></path>
                        </g>
                    </g>
                </g>
            </g>
        </g>
    </g>
</svg>