<?xml version="1.0" encoding="UTF-8"?>
<svg width="42px" height="42px" viewBox="0 0 42 42" version="1.1" xmlns="http://www.w3.org/2000/svg" xmlns:xlink="http://www.w3.org/1999/xlink">
    <title>instagram-6054_d5caa7fe-bd1b-43b6-8f05-2da4cbe4b727</title>
    <g id="Symbols" stroke="none" stroke-width="1" fill="none" fill-rule="evenodd" stroke-linecap="round" stroke-linejoin="round">
        <g id="Components-/-Reusables-/-Footers-/-Footer-Dark" transform="translate(-1298.000000, -1604.000000)" stroke="#E1306C" stroke-width="2">
            <g id="Group-12" transform="translate(0.000000, 1454.000000)">
                <g id="Group-7" transform="translate(1209.000000, 75.000000)">
                    <g id="instagram" transform="translate(80.000000, 66.000000)">
                        <g id="instagram-6054_d5caa7fe-bd1b-43b6-8f05-2da4cbe4b727" transform="translate(10.000000, 10.000000)">
                            <path d="M28.0813333,1.76850964e-07 L11.9133333,1.76850964e-07 C5.34364118,0.00182158137 0.0147011571,5.32032439 0,11.8900004 L0,28.0233337 C0.0150680971,34.5927492 5.3439008,39.9108467 11.9133333,39.9126672 L28.0813333,39.9126672 C34.6531073,39.9137864 39.985294,34.5944247 40,28.022667 L40,11.8893337 C39.984927,5.31783652 34.6528477,-0.00111984422 28.0813333,1.76850964e-07 Z M35.9733333,28.022667 C35.9710361,30.1134574 35.138269,32.1177017 33.6582316,33.5944885 C32.1781942,35.0712752 30.1721237,35.8996335 28.0813333,35.8973385 L11.9133333,35.8973385 C9.82254295,35.8996335 7.81647245,35.0712752 6.33643507,33.5944885 C4.8563977,32.1177017 4.02363061,30.1134574 4.02133333,28.022667 L4.02133333,11.8893337 C4.02363061,9.7985433 4.8563977,7.79429898 6.33643507,6.31751224 C7.81647245,4.8407255 9.82254295,4.01236721 11.9133333,4.01466224 L28.0813333,4.01466224 C30.1722391,4.01236727 32.1784106,4.84081705 33.6584671,6.31774794 C35.1385236,7.79467883 35.9712127,9.7990944 35.9733333,11.8900004 L35.9733333,28.022667 Z" id="Shape"></path>
                            <path d="M20,9.63333369 C14.3015652,9.64437433 9.68998507,14.2708671 9.69733315,19.9693079 C9.7046988,25.6677486 14.3282094,30.2823186 20.0266538,30.2786477 C25.7250981,30.2749724 30.3426667,25.6544459 30.3426667,19.9560004 C30.3298038,14.2524776 25.703537,9.63515678 20,9.63333369 Z M20,26.2666706 C16.5183889,26.2589391 13.7015245,23.4316369 13.7066665,19.9500211 C13.7118227,16.4684052 16.5370376,13.6494473 20.0186563,13.6520159 C23.500275,13.6545879 26.3213333,16.477714 26.3213333,19.9593337 C26.3172855,23.4465681 23.4872348,26.270351 20,26.2666706 Z M32.8420058,9.71066702 C32.8441582,10.7139463 32.2414583,11.6196367 31.3151678,12.0050714 C30.3888774,12.3905061 29.3215983,12.1797033 28.6114077,11.4710404 C27.901217,10.7623775 27.6881164,9.69555483 28.0715555,8.76843652 C28.4549946,7.84131821 29.3593851,7.23666477 30.3626667,7.23666477 C31.0195736,7.23578244 31.6499074,7.4959809 32.1149111,7.95998429 C32.5799147,8.42398768 32.84147,9.05375966 32.8420058,9.71066702 Z" id="Shape"></path>
                        </g>
                    </g>
                </g>
            </g>
        </g>
    </g>
</svg>