<?xml version="1.0" encoding="UTF-8"?>
<svg width="42px" height="39px" viewBox="0 0 42 39" version="1.1" xmlns="http://www.w3.org/2000/svg" xmlns:xlink="http://www.w3.org/1999/xlink">
    <title>linkedin-6017_ca069c88-e02c-4103-858c-3a019a725807</title>
    <g id="Symbols" stroke="none" stroke-width="1" fill="none" fill-rule="evenodd" stroke-linecap="round" stroke-linejoin="round">
        <g id="Components-/-Reusables-/-Footers-/-Footer-Dark" transform="translate(-1378.000000, -1603.000000)" stroke="#2867B2" stroke-width="2">
            <g id="Group-12" transform="translate(0.000000, 1454.000000)">
                <g id="Group-7" transform="translate(1209.000000, 75.000000)">
                    <g id="instagram-copy" transform="translate(160.000000, 66.000000)">
                        <g id="linkedin-6017_ca069c88-e02c-4103-858c-3a019a725807" transform="translate(10.000000, 9.000000)">
                            <polygon id="Path" points="0.718666667 11.9373333 8.844 11.9373333 8.844 36.5 0.718666667 36.5"></polygon>
                            <path d="M29.8126667,11.1246667 C26.25,11.1246667 24.1253333,12.4373333 21.8753333,15.312 L21.8753333,11.9373333 L13.75,11.9373333 L13.75,36.5 L21.9373333,36.5 L21.9373333,23.1873333 C21.9373333,20.3746667 23.3746667,17.6246667 26.6246667,17.6246667 C29.8746667,17.6246667 31.812,20.3746667 31.812,23.1246667 L31.812,36.5 L40,36.5 L40,22.5626667 C40,12.8746667 33.4373333,11.1246667 29.8126667,11.1246667 Z" id="Path"></path>
                            <path d="M4.81266667,0 C2.12533333,0 0,1.93733333 0,4.31266667 C0,6.688 2.12533333,8.62533333 4.81266667,8.62533333 C7.5,8.62533333 9.62533333,6.688 9.62533333,4.31266667 C9.62533333,1.93733333 7.5,0 4.81266667,0 Z" id="Path"></path>
                        </g>
                    </g>
                </g>
            </g>
        </g>
    </g>
</svg>