<?xml version="1.0" encoding="UTF-8"?>
<svg width="49px" height="52px" viewBox="0 0 49 52" version="1.1" xmlns="http://www.w3.org/2000/svg" xmlns:xlink="http://www.w3.org/1999/xlink">
    <title>Phone</title>
    <g id="Symbols" stroke="none" stroke-width="1" fill="none" fill-rule="evenodd" stroke-linejoin="round">
        <g id="Components-/-Reusables-/-Footers-/-Footer-Dark" transform="translate(-303.000000, -1531.000000)" stroke="#FFFFFF" stroke-width="2">
            <g id="Group-12" transform="translate(0.000000, 1454.000000)">
                <g id="Group-15" transform="translate(300.000000, 75.000000)">
                    <g id="office-phone-4678_941f3367-bb76-4506-8ead-6b3af4dc4822" transform="translate(4.910714, 2.946429)">
                        <rect id="Rectangle" x="0" y="6.54761905" width="14.7321429" height="42.5595238" rx="4"></rect>
                        <line x1="4.91071429" y1="0" x2="4.91071429" y2="6.54761905" id="Path"></line>
                        <path d="M14.7321429,47.4702381 L42.5595238,47.4702381 C44.3675989,47.4702381 45.8333333,46.0045036 45.8333333,44.1964286 L45.8333333,13.0952381 C45.8333333,11.287163 44.3675989,9.82142857 42.5595238,9.82142857 L14.7321429,9.82142857" id="Path"></path>
                        <polygon id="Path" points="21.2797619 16.3690476 39.2857143 16.3690476 39.2857143 22.9166667 21.2797619 22.9166667"></polygon>
                        <circle id="Oval" cx="23.735119" cy="28.6458333" r="1"></circle>
                        <circle id="Oval" cx="30.2827381" cy="28.6458333" r="1"></circle>
                        <circle id="Oval" cx="36.8303571" cy="28.6458333" r="1"></circle>
                        <circle id="Oval" cx="23.735119" cy="35.1934524" r="1"></circle>
                        <circle id="Oval" cx="30.2827381" cy="35.1934524" r="1"></circle>
                        <circle id="Oval" cx="36.8303571" cy="35.1934524" r="1"></circle>
                        <circle id="Oval" cx="23.735119" cy="41.7410714" r="1"></circle>
                        <circle id="Oval" cx="30.2827381" cy="41.7410714" r="1"></circle>
                        <circle id="Oval" cx="36.8303571" cy="41.7410714" r="1"></circle>
                    </g>
                </g>
            </g>
        </g>
    </g>
</svg>