<?xml version="1.0" encoding="UTF-8"?>
<svg width="42px" height="36px" viewBox="0 0 42 36" version="1.1" xmlns="http://www.w3.org/2000/svg" xmlns:xlink="http://www.w3.org/1999/xlink">
    <title>twitter-6033_3313d15b-0747-4d4b-9253-2c2fcc046d4b</title>
    <g id="Symbols" stroke="none" stroke-width="1" fill="none" fill-rule="evenodd" stroke-linecap="round" stroke-linejoin="round">
        <g id="Components-/-Reusables-/-Footers-/-Footer-Dark" transform="translate(-1458.000000, -1607.000000)" stroke="#1DA1F2" stroke-width="2">
            <g id="Group-12" transform="translate(0.000000, 1454.000000)">
                <g id="Group-7" transform="translate(1209.000000, 75.000000)">
                    <g id="instagram-copy-2" transform="translate(240.000000, 66.000000)">
                        <g id="twitter-6033_3313d15b-0747-4d4b-9253-2c2fcc046d4b" transform="translate(10.000000, 13.000000)">
                            <path d="M39.5276948,4.51729623 C38.7815487,4.79556847 38.0166664,5.02075277 37.2387661,5.19116577 C37.0855455,5.22552268 36.9282931,5.15303645 36.8548977,5.01421982 C36.7815022,4.87540319 36.8101396,4.70463296 36.9248041,4.59735305 C37.8168047,3.74294555 38.5517388,2.73844917 39.0960842,1.62968171 C39.1605024,1.49522095 39.1321294,1.33466523 39.0255288,1.2304265 C38.9189282,1.12618777 38.7577771,1.10141864 38.6247932,1.16883292 C37.2124884,1.92646754 35.6718017,2.41532341 34.0810468,2.61055174 C32.4136967,0.955508574 30.1649607,0.0185352407 27.8157309,0 C25.530503,-0.00203077687 23.3382874,0.904871737 21.7223867,2.52077252 C20.1064859,4.1366733 19.1995834,6.32888883 19.2016175,8.61411673 C19.1986816,9.25025031 19.2642654,9.88485009 19.3972346,10.5069383 C13.0985036,10.3161942 5.74580728,7.27194682 1.44988896,1.97984326 C1.37712667,1.88868585 1.26354332,1.84003139 1.14735555,1.85025032 C1.03116778,1.86046924 0.927820995,1.9282031 0.872087599,2.03066194 C-0.829195728,5.53570857 0.0120569164,9.7448177 2.92989582,12.3266645 C3.0469552,12.4219294 3.08928376,12.5817793 3.03471181,12.7224925 C2.98013985,12.8632056 2.84110271,12.9527176 2.69042152,12.9441462 C1.94014602,12.9107542 1.20510929,12.7210673 0.532368244,12.3872292 C0.421031774,12.3308257 0.288018295,12.3383499 0.183752875,12.4069494 C0.0794874543,12.4755488 0.0199313914,12.5947221 0.0276622356,12.719291 C0.170903668,16.0872702 2.38210979,19.0156842 5.58221292,20.0754681 C5.73150192,20.1292847 5.82549036,20.2772648 5.81073878,20.4352706 C5.79598721,20.5932764 5.67623069,20.7213011 5.51955976,20.746553 C4.86403726,20.8209413 4.20220387,20.8209413 3.54668137,20.746553 C3.43183133,20.7357676 3.31897801,20.7818999 3.24457096,20.8700501 C3.1701639,20.9582002 3.14363291,21.0771967 3.173547,21.1886059 C3.76457514,23.4733578 6.71832355,26.1486477 10.0229296,26.5155168 C10.1581833,26.5331475 10.2706752,26.6281529 10.3106931,26.7585483 C10.350711,26.8889438 10.3108794,27.0306967 10.2088007,27.121164 C7.4530869,29.3282974 3.99007248,30.4604558 0.462753623,30.3074252 C0.299942275,30.3001923 0.153909104,30.4068951 0.111325168,30.5642052 C0.0687412325,30.7215153 0.141008572,30.8873121 0.285236337,30.9631949 C4.00697312,32.9150493 8.1469441,33.9341558 12.3494503,33.9329547 C18.949898,33.9765881 25.2773774,31.3018212 29.8452261,26.5370995 C34.4130748,21.7723779 36.8186212,15.3377279 36.4966742,8.74499222 L36.4966742,8.41849964 C37.8188789,7.49192258 38.9793547,6.35379073 39.9314597,5.04984809 C40.0236427,4.92560648 40.0227603,4.75543202 39.9292939,4.63215302 C39.8358274,4.50887402 39.6722107,4.46207986 39.5276948,4.51729623 L39.5276948,4.51729623 Z" id="Path"></path>
                        </g>
                    </g>
                </g>
            </g>
        </g>
    </g>
</svg>