<?xml version="1.0" encoding="UTF-8"?>
<svg width="42px" height="30px" viewBox="0 0 42 30" version="1.1" xmlns="http://www.w3.org/2000/svg" xmlns:xlink="http://www.w3.org/1999/xlink">
    <title>youtube-6045_656eb8eb-b81c-4447-9478-bac83662ac0e</title>
    <g id="Symbols" stroke="none" stroke-width="1" fill="none" fill-rule="evenodd" stroke-linecap="round" stroke-linejoin="round">
        <g id="Components-/-Reusables-/-Footers-/-Footer-Dark" transform="translate(-1538.000000, -1610.000000)" stroke="#FF0000" stroke-width="2">
            <g id="Group-12" transform="translate(0.000000, 1454.000000)">
                <g id="Group-7" transform="translate(1209.000000, 75.000000)">
                    <g id="instagram-copy-3" transform="translate(320.000000, 66.000000)">
                        <g id="youtube-6045_656eb8eb-b81c-4447-9478-bac83662ac0e" transform="translate(10.000000, 16.000000)">
                            <path d="M31.6926667,0 L8.30733333,0 C3.74486389,-0.0224205224 0.0268044314,3.65565659 0,8.21810289 L0,19.7821029 C0.0268044314,24.3445492 3.74486389,28.0226263 8.30733333,28.0002058 L31.6926667,28.0002058 C36.2551361,28.0226263 39.9731956,24.3445492 40,19.7821029 L40,8.21810289 C39.9731956,3.65565659 36.2551361,-0.0224205224 31.6926667,0 Z" id="Path"></path>
                            <path d="M26.074,14.5627696 L15.1333333,19.7234362 C14.9985683,19.7868296 14.8408442,19.7775168 14.7144756,19.6987049 C14.5881071,19.619893 14.5103571,19.4823482 14.508,19.3334362 L14.508,8.68743623 C14.509671,8.53573443 14.5894921,8.39562958 14.7191383,8.31683827 C14.8487846,8.23804697 15.009908,8.23172014 15.1453333,8.30010289 L26.0833333,13.7834362 C26.2320572,13.8573878 26.3253193,14.0099497 26.3233615,14.176033 C26.3213412,14.3421163 26.2244523,14.492401 26.074,14.5627696 L26.074,14.5627696 Z" id="Path"></path>
                        </g>
                    </g>
                </g>
            </g>
        </g>
    </g>
</svg>